HIERARCHY
ROOT Hips
{
	OFFSET 0.000000 83.214638 0.000000
	CHANNELS 6 Xposition Yposition Zposition Xrotation Yrotation Zrotation
	JOINT Pelvis
	{
		OFFSET 0.000000 0.000000 0.000000
		CHANNELS 3 Xrotation Yrotation Zrotation
		JOINT LeftUpLeg
		{
			OFFSET 8.479700 -4.795502 -0.379100
			CHANNELS 3 Xrotation Yrotation Zrotation
			JOINT LeftLeg
			{
				OFFSET 0.024144 -32.555107 0.112900
				CHANNELS 3 Xrotation Yrotation Zrotation
				JOINT LeftFoot
				{
					OFFSET -0.024144 -32.638630 -3.012600
					CHANNELS 3 Xrotation Yrotation Zrotation
					JOINT LeftToeBase
					{
						OFFSET 0.970200 -13.225400 11.864200
						CHANNELS 3 Xrotation Yrotation Zrotation
						End Site
						{
							OFFSET 0.000000 12.319262 0.000000
						}
					}
					JOINT LFootTongue
					{
						OFFSET 1.142400 -1.059800 6.665200
						CHANNELS 3 Xrotation Yrotation Zrotation
						End Site
						{
							OFFSET 0.000000 12.319262 0.000000
						}
					}
				}
				JOINT LeftPantLeg
				{
					OFFSET 0.918482 -16.533964 -2.284700
					CHANNELS 3 Xrotation Yrotation Zrotation
					End Site
					{
						OFFSET 0.350399 24.744368 0.000000
					}
				}
			}
		}
		JOINT RightUpLeg
		{
			OFFSET -8.479700 -4.795502 -0.379100
			CHANNELS 3 Xrotation Yrotation Zrotation
			JOINT RightLeg
			{
				OFFSET -0.023144 -32.555092 0.112900
				CHANNELS 3 Xrotation Yrotation Zrotation
				JOINT RightFoot
				{
					OFFSET 0.023144 -32.638641 -3.012700
					CHANNELS 3 Xrotation Yrotation Zrotation
					JOINT RightToeBase
					{
						OFFSET -0.970200 -13.225400 11.864200
						CHANNELS 3 Xrotation Yrotation Zrotation
						End Site
						{
							OFFSET 0.000000 12.319244 0.000000
						}
					}
					JOINT RFootTongue
					{
						OFFSET -1.142200 -1.059800 6.665200
						CHANNELS 3 Xrotation Yrotation Zrotation
						End Site
						{
							OFFSET 0.000000 12.319243 0.000000
						}
					}
				}
				JOINT RightPantLeg
				{
					OFFSET -0.919482 -16.533978 -2.284800
					CHANNELS 3 Xrotation Yrotation Zrotation
					End Site
					{
						OFFSET -0.350400 24.744419 0.000000
					}
				}
			}
		}
	}
	JOINT Spine
	{
		OFFSET 0.000000 7.722000 1.166200
		CHANNELS 3 Xrotation Yrotation Zrotation
		JOINT Spine1
		{
			OFFSET 0.000000 12.024101 0.248800
			CHANNELS 3 Xrotation Yrotation Zrotation
			JOINT Spine2
			{
				OFFSET 0.000000 11.502998 -0.491200
				CHANNELS 3 Xrotation Yrotation Zrotation
				JOINT Neck
				{
					OFFSET 0.000000 18.430702 -3.123100
					CHANNELS 3 Xrotation Yrotation Zrotation
					JOINT Head
					{
						OFFSET 0.000000 9.051102 1.034000
						CHANNELS 3 Xrotation Yrotation Zrotation
						JOINT HairB
						{
							OFFSET 0.208400 24.786102 24.822300
							CHANNELS 3 Xrotation Yrotation Zrotation
							End Site
							{
								OFFSET 0.000000 32.263779 0.000000
							}
						}
						JOINT HairA
						{
							OFFSET -7.081100 24.428299 23.196600
							CHANNELS 3 Xrotation Yrotation Zrotation
							End Site
							{
								OFFSET 0.000000 32.263779 0.000000
							}
						}
						JOINT Hat
						{
							OFFSET 16.728800 15.048294 -15.439601
							CHANNELS 3 Xrotation Yrotation Zrotation
							End Site
							{
								OFFSET 0.000000 32.263779 0.000000
							}
						}
					}
				}
				JOINT LeftShoulder
				{
					OFFSET 6.197800 13.665199 -4.064700
					CHANNELS 3 Xrotation Yrotation Zrotation
					JOINT LeftArm
					{
						OFFSET 7.778100 -0.187103 -1.709300
						CHANNELS 3 Xrotation Yrotation Zrotation
						JOINT LeftForeArm
						{
							OFFSET 22.049376 0.000000 0.000000
							CHANNELS 3 Xrotation Yrotation Zrotation
							JOINT LeftHand
							{
								OFFSET 23.009392 0.000000 0.000000
								CHANNELS 3 Xrotation Yrotation Zrotation
								JOINT LeftHandThumb1
								{
									OFFSET 3.507191 -2.063065 3.133727
									CHANNELS 3 Xrotation Yrotation Zrotation
									JOINT LeftHandThumb2
									{
										OFFSET 3.101337 -1.790558 1.790558
										CHANNELS 3 Xrotation Yrotation Zrotation
										JOINT LeftHandThumb3
										{
											OFFSET 3.058640 -1.765907 1.765906
											CHANNELS 3 Xrotation Yrotation Zrotation
											End Site
											{
												OFFSET -0.415260 3.926476 -0.049563
											}
										}
									}
								}
								JOINT LeftHandIndex1
								{
									OFFSET 11.334419 -0.901459 3.706815
									CHANNELS 3 Xrotation Yrotation Zrotation
									JOINT LeftHandIndex2
									{
										OFFSET 3.283112 0.000000 0.000000
										CHANNELS 3 Xrotation Yrotation Zrotation
										JOINT LeftHandIndex3
										{
											OFFSET 3.323853 0.000000 0.000000
											CHANNELS 3 Xrotation Yrotation Zrotation
											End Site
											{
												OFFSET -1.135597 3.097809 0.402452
											}
										}
									}
								}
								JOINT LeftHandMiddle1
								{
									OFFSET 11.335861 0.000000 0.000000
									CHANNELS 3 Xrotation Yrotation Zrotation
									JOINT LeftHandMiddle2
									{
										OFFSET 3.410492 0.000000 0.000000
										CHANNELS 3 Xrotation Yrotation Zrotation
										JOINT LeftHandMiddle3
										{
											OFFSET 3.312172 0.000000 0.000000
											CHANNELS 3 Xrotation Yrotation Zrotation
											End Site
											{
												OFFSET -1.150200 3.080154 0.400270
											}
										}
									}
								}
								JOINT LeftHandRing1
								{
									OFFSET 11.514786 -0.013176 -3.003090
									CHANNELS 3 Xrotation Yrotation Zrotation
									JOINT LeftHandRing2
									{
										OFFSET 3.053307 0.000000 0.000000
										CHANNELS 3 Xrotation Yrotation Zrotation
										JOINT LeftHandRing3
										{
											OFFSET 3.295807 0.000000 0.000000
											CHANNELS 3 Xrotation Yrotation Zrotation
											End Site
											{
												OFFSET -1.281006 3.013344 0.375733
											}
										}
									}
								}
								JOINT LeftHandPinky1
								{
									OFFSET 10.518692 -0.960396 -5.730441
									CHANNELS 3 Xrotation Yrotation Zrotation
									JOINT LeftHandPinky2
									{
										OFFSET 2.861649 0.000000 0.000000
										CHANNELS 3 Xrotation Yrotation Zrotation
										JOINT LeftHandPinky3
										{
											OFFSET 2.863380 0.000000 0.000000
											CHANNELS 3 Xrotation Yrotation Zrotation
											End Site
											{
												OFFSET -0.843597 2.711159 0.369971
											}
										}
									}
								}
							}
							JOINT LSleeve
							{
								OFFSET 6.676277 -0.344902 -1.011730
								CHANNELS 3 Xrotation Yrotation Zrotation
								End Site
								{
									OFFSET 0.000000 14.885353 0.000000
								}
							}
						}
					}
				}
				JOINT RightShoulder
				{
					OFFSET -6.197800 13.665199 -4.064700
					CHANNELS 3 Xrotation Yrotation Zrotation
					JOINT RightArm
					{
						OFFSET -7.778100 -0.187103 -1.709300
						CHANNELS 3 Xrotation Yrotation Zrotation
						JOINT RightForeArm
						{
							OFFSET -22.049376 0.000000 0.000000
							CHANNELS 3 Xrotation Yrotation Zrotation
							JOINT RightHand
							{
								OFFSET -23.009392 0.000000 0.000000
								CHANNELS 3 Xrotation Yrotation Zrotation
								JOINT RightHandThumb1
								{
									OFFSET -3.507191 -2.063065 3.133727
									CHANNELS 3 Xrotation Yrotation Zrotation
									JOINT RightHandThumb2
									{
										OFFSET -3.101337 -1.790558 1.790558
										CHANNELS 3 Xrotation Yrotation Zrotation
										JOINT RightHandThumb3
										{
											OFFSET -3.058640 -1.765907 1.765906
											CHANNELS 3 Xrotation Yrotation Zrotation
											End Site
											{
												OFFSET 0.415260 3.926476 -0.049563
											}
										}
									}
								}
								JOINT RightHandIndex1
								{
									OFFSET -11.334419 -0.901459 3.706815
									CHANNELS 3 Xrotation Yrotation Zrotation
									JOINT RightHandIndex2
									{
										OFFSET -3.283112 0.000000 0.000000
										CHANNELS 3 Xrotation Yrotation Zrotation
										JOINT RightHandIndex3
										{
											OFFSET -3.323853 0.000000 0.000000
											CHANNELS 3 Xrotation Yrotation Zrotation
											End Site
											{
												OFFSET 1.135597 3.097809 0.402452
											}
										}
									}
								}
								JOINT RightHandMiddle1
								{
									OFFSET -11.335861 0.000000 0.000000
									CHANNELS 3 Xrotation Yrotation Zrotation
									JOINT RightHandMiddle2
									{
										OFFSET -3.410492 0.000000 0.000000
										CHANNELS 3 Xrotation Yrotation Zrotation
										JOINT RightHandMiddle3
										{
											OFFSET -3.312172 0.000000 0.000000
											CHANNELS 3 Xrotation Yrotation Zrotation
											End Site
											{
												OFFSET 1.150200 3.080154 0.400270
											}
										}
									}
								}
								JOINT RightHandRing1
								{
									OFFSET -11.514786 -0.013176 -3.003090
									CHANNELS 3 Xrotation Yrotation Zrotation
									JOINT RightHandRing2
									{
										OFFSET -3.053307 0.000000 0.000000
										CHANNELS 3 Xrotation Yrotation Zrotation
										JOINT RightHandRing3
										{
											OFFSET -3.295807 0.000000 0.000000
											CHANNELS 3 Xrotation Yrotation Zrotation
											End Site
											{
												OFFSET 1.281006 3.013344 0.375733
											}
										}
									}
								}
								JOINT RightHandPinky1
								{
									OFFSET -10.518692 -0.960396 -5.730441
									CHANNELS 3 Xrotation Yrotation Zrotation
									JOINT RightHandPinky2
									{
										OFFSET -2.861649 0.000000 0.000000
										CHANNELS 3 Xrotation Yrotation Zrotation
										JOINT RightHandPinky3
										{
											OFFSET -2.863380 0.000000 0.000000
											CHANNELS 3 Xrotation Yrotation Zrotation
											End Site
											{
												OFFSET 0.843597 2.711159 0.369971
											}
										}
									}
								}
							}
							JOINT RSleeve
							{
								OFFSET -6.676277 -0.344902 -1.011730
								CHANNELS 3 Xrotation Yrotation Zrotation
								End Site
								{
									OFFSET 0.000000 14.885353 0.000000
								}
							}
						}
					}
				}
				JOINT Backpack
				{
					OFFSET 0.000000 -2.471497 36.677502
					CHANNELS 3 Xrotation Yrotation Zrotation
					End Site
					{
						OFFSET 0.000000 20.427315 0.000000
					}
				}
				JOINT Hood
				{
					OFFSET 0.000000 18.754097 -10.431000
					CHANNELS 3 Xrotation Yrotation Zrotation
					JOINT Hood1
					{
						OFFSET 0.000000 -5.011002 -7.685901
						CHANNELS 3 Xrotation Yrotation Zrotation
						End Site
						{
							OFFSET 0.000000 9.175140 0.000000
						}
					}
				}
				JOINT LHoodieString
				{
					OFFSET 5.250500 16.397697 3.089900
					CHANNELS 3 Xrotation Yrotation Zrotation
					JOINT LHoodieString1
					{
						OFFSET 0.257700 -6.364304 3.694600
						CHANNELS 3 Xrotation Yrotation Zrotation
						JOINT LHoodieString2
						{
							OFFSET 0.000000 -9.643799 2.679100
							CHANNELS 3 Xrotation Yrotation Zrotation
							End Site
							{
								OFFSET 0.000000 10.009018 0.000000
							}
						}
					}
				}
				JOINT RHoodieString
				{
					OFFSET -5.250500 16.397697 3.089900
					CHANNELS 3 Xrotation Yrotation Zrotation
					JOINT RHoodieString1
					{
						OFFSET -0.257700 -6.364304 3.694600
						CHANNELS 3 Xrotation Yrotation Zrotation
						JOINT RHoodieString2
						{
							OFFSET 0.000000 -9.643799 2.679100
							CHANNELS 3 Xrotation Yrotation Zrotation
							End Site
							{
								OFFSET 0.000000 10.009018 0.000000
							}
						}
					}
				}
			}
			JOINT LBackpack_Strap
			{
				OFFSET 15.223200 -7.719803 -6.610900
				CHANNELS 3 Xrotation Yrotation Zrotation
				End Site
				{
					OFFSET 0.000000 16.040596 0.000000
				}
			}
			JOINT RBackpack_Strap
			{
				OFFSET -15.223000 -7.719803 -6.610900
				CHANNELS 3 Xrotation Yrotation Zrotation
				End Site
				{
					OFFSET 0.000000 16.040596 0.000000
				}
			}
		}
	}
	JOINT BoyFacialAnim_Joint
	{
		OFFSET 1.000000 -82.208099 -1.550900
		CHANNELS 3 Xrotation Yrotation Zrotation
		End Site
		{
			OFFSET 0.000000 30.012791 0.000000
		}
	}
}
MOTION
Frames: 5
Frame Time: 0.016667
-0.679271 79.880989 0.246447 -5.343576 -7.739136 6.008508 -0.000000 0.000001 0.000000 -28.152185 6.738356 10.863961 21.260979 8.583872 0.703877 31.381652 9.202537 1.319846 -0.000001 -0.000002 0.000000 -0.000001 -0.000002 0.000000 -0.000000 0.000000 0.000000 -10.388088 -8.931760 14.252294 19.336284 -9.948666 -1.111392 -7.716557 -14.299040 -22.020716 -0.000000 0.000000 0.000000 -0.000000 0.000000 0.000000 0.000000 0.000001 0.000000 0.572177 1.002409 -3.211179 0.947293 2.037202 -4.377106 0.968933 2.043658 -4.365421 2.884317 1.135687 4.005908 7.888285 9.350190 8.465892 0.000001 -0.000000 0.000001 0.000001 -0.000000 0.000001 0.000001 -0.000000 0.000001 1.058070 -0.340529 -4.891288 -16.372112 12.814410 -32.934014 0.000019 -24.507081 0.000037 42.987592 -10.562024 -4.600066 -1.540048 3.690189 6.142349 3.946767 7.971402 0.752852 -0.000001 0.000002 0.000001 0.000000 0.000003 -0.000001 -0.000006 0.000006 0.000005 -0.000000 -0.000001 -0.000004 -0.000002 -0.001918 0.015980 0.000002 0.001920 -0.015991 -0.000001 -0.000000 -0.000002 -0.000001 -0.000002 -0.000002 -0.000004 0.000006 -0.000004 0.000001 0.000000 -0.000000 -0.018090 4.054260 0.511073 -0.018091 -4.054254 -0.511064 0.000001 -0.000004 0.000001 -0.000001 -0.000001 0.000004 0.199127 -5.464830 5.846318 -40.201216 28.677451 7.199774 -0.000002 4.457078 -0.000001 36.569038 21.327740 -11.047051 -1.908784 1.147429 -8.502726 4.645039 -8.656799 -0.231331 0.000000 -0.000003 0.000002 0.007132 0.315399 -2.588954 -0.000003 0.000002 0.000016 -0.000001 0.000001 -0.000002 0.007127 0.315398 -2.588946 -0.000001 0.000009 0.000092 -0.000001 -0.000002 0.000001 0.007127 0.315395 -2.588947 0.000003 0.000010 0.000045 -0.000002 -0.000002 0.000002 0.007127 0.315396 -2.588953 0.000000 0.000003 0.000062 -0.000000 0.000000 0.000000 0.000004 0.000002 -0.000001 -0.000000 -0.000000 -0.000000 -0.000000 -0.000000 -0.000000 -0.000000 -0.000000 -0.000000 -0.000000 -0.000000 -0.000000 -0.000000 -0.000000 -0.000000 -0.000000 -0.000000 -0.000000 -0.000000 -0.000000 -0.000000 -0.000000 -0.000000 -0.000000 -0.000000 -0.000000 -0.000000 -0.000001 -0.000001 -0.000000 -0.000001 -0.000001 -0.000000 -0.000000 0.000001 0.000000 
-0.738899 80.008575 0.973800 -5.494865 -10.633588 6.570097 0.000000 0.000000 -0.000000 -29.551223 6.845343 9.242077 21.987397 8.654354 0.701101 31.571440 7.911450 -1.202468 0.000001 -0.000000 0.000001 0.000001 -0.000000 0.000001 -0.000002 -0.000000 -0.000001 -9.729109 -8.722363 13.475918 20.920825 -9.876294 -1.035984 -8.618597 -12.815344 -20.581612 0.000000 -0.000000 0.000000 0.000000 -0.000000 0.000000 0.000001 0.000001 -0.000002 0.702030 1.182125 -3.514108 1.150021 2.492869 -4.561967 1.175537 2.502168 -4.546986 2.728370 1.302015 3.879431 7.459737 10.036897 8.266646 -0.000000 0.000000 0.000000 -0.000000 0.000000 0.000000 -0.000000 0.000000 0.000000 0.919752 0.306314 -3.868009 -17.993278 11.628147 -29.784136 0.000005 -26.012419 0.000003 42.448813 -8.511034 -6.736308 -1.540046 3.690190 6.142349 3.946765 7.971400 0.752850 -0.000002 -0.000004 -0.000001 0.000002 0.000006 -0.000000 -0.000005 0.000007 0.000001 0.000001 -0.000001 -0.000000 -0.000000 -0.001918 0.015985 0.000001 0.001919 -0.015990 -0.000000 -0.000005 -0.000004 -0.000001 0.000001 -0.000004 -0.000004 0.000006 -0.000001 -0.000001 -0.000001 -0.000002 -0.018089 4.054261 0.511078 -0.018088 -4.054256 -0.511062 0.000002 0.000002 0.000000 -0.000000 -0.000000 0.000002 0.206929 -5.347461 5.805464 -41.452391 31.404100 7.845448 -0.000003 4.254783 -0.000001 36.426649 17.698514 -11.018022 -1.940998 0.213043 -8.122620 4.645037 -8.656799 -0.231330 -0.000001 -0.000001 -0.000000 0.004586 0.253164 -2.077728 -0.000002 0.000003 0.000009 -0.000002 0.000001 0.000000 0.004591 0.253163 -2.077728 0.000000 0.000007 0.000085 -0.000002 -0.000002 -0.000000 0.004590 0.253164 -2.077729 0.000005 0.000012 0.000044 -0.000000 -0.000005 0.000001 0.004587 0.253163 -2.077725 0.000001 0.000007 0.000066 0.000000 -0.000001 -0.000003 0.000001 -0.000001 -0.000001 -0.000000 0.000000 -0.000000 -0.000000 0.000000 -0.000000 -0.000000 0.000000 -0.000000 -0.000000 0.000000 -0.000000 -0.000000 0.000000 0.000000 0.000000 0.000000 0.000000 -0.000000 0.000000 -0.000000 -0.000000 0.000000 0.000000 0.000000 0.000000 0.000000 -0.000001 0.000000 0.000000 -0.000001 0.000000 0.000000 0.000000 0.000000 -0.000000 
-0.800141 80.136490 1.707820 -5.650079 -13.527928 7.069002 0.000000 -0.000001 -0.000001 -30.827492 7.077506 7.509295 22.725699 8.749536 0.707775 31.868515 6.878705 -3.699224 0.000001 -0.000001 -0.000000 0.000001 -0.000001 -0.000000 0.000000 0.000000 0.000001 -9.114700 -8.534389 12.638295 22.617686 -9.804090 -0.955598 -9.548189 -11.391518 -19.044797 0.000000 0.000002 -0.000000 0.000000 0.000002 -0.000000 0.000001 -0.000001 0.000001 0.831666 1.366489 -3.796635 1.350767 2.961712 -4.730877 1.379869 2.974012 -4.712207 2.584064 1.463159 3.751657 7.038276 10.696997 8.064929 -0.000000 0.000000 0.000000 -0.000000 0.000000 0.000000 -0.000000 0.000000 0.000000 0.757069 0.956895 -2.838909 -19.446290 10.332248 -26.706624 0.000010 -27.039612 0.000006 42.214128 -6.536484 -9.326120 -1.540049 3.690189 6.142349 3.946768 7.971398 0.752851 -0.000002 0.000002 -0.000001 -0.000003 0.000008 0.000000 -0.000003 0.000004 -0.000001 -0.000001 -0.000004 -0.000001 -0.000001 -0.001919 0.015983 0.000003 0.001919 -0.015986 0.000000 -0.000000 0.000000 -0.000002 -0.000001 -0.000004 -0.000003 0.000007 -0.000004 -0.000002 0.000002 -0.000000 -0.018093 4.054262 0.511071 -0.018092 -4.054256 -0.511062 0.000001 -0.000001 -0.000004 -0.000002 0.000000 0.000001 0.212557 -5.230999 5.754126 -42.739516 34.146513 8.566005 0.000001 4.063307 0.000000 36.307906 13.991121 -11.057204 -1.951452 -0.743614 -7.734741 4.645039 -8.656802 -0.231326 -0.000001 0.000002 -0.000000 0.002567 0.189407 -1.554382 -0.000004 0.000010 0.000014 -0.000002 0.000000 -0.000002 0.002568 0.189401 -1.554381 -0.000000 0.000004 0.000093 0.000004 0.000000 -0.000002 0.002568 0.189411 -1.554386 0.000008 0.000013 0.000044 0.000001 -0.000001 0.000006 0.002563 0.189408 -1.554387 0.000003 0.000005 0.000064 -0.000002 -0.000001 -0.000002 -0.000001 0.000001 -0.000001 -0.000000 -0.000001 -0.000000 -0.000000 -0.000001 -0.000000 -0.000000 -0.000001 -0.000000 -0.000000 -0.000001 -0.000000 -0.000000 -0.000001 -0.000000 -0.000000 -0.000001 -0.000001 -0.000000 -0.000001 -0.000000 -0.000000 -0.000001 -0.000000 -0.000000 -0.000001 -0.000001 0.000000 -0.000000 -0.000000 0.000000 -0.000000 -0.000000 0.000000 -0.000001 -0.000001 
-0.873816 80.260170 2.441954 -5.820767 -16.367058 7.474976 -0.000001 0.000001 0.000001 -32.021464 7.426841 5.684689 23.446842 8.865073 0.727154 32.370046 6.211767 -6.132714 0.000000 -0.000000 0.000000 0.000000 -0.000000 0.000000 0.000003 0.000000 -0.000000 -8.502963 -8.377473 11.787480 24.329694 -9.729081 -0.875858 -10.447597 -10.064421 -17.459813 -0.000000 -0.000001 0.000000 -0.000000 -0.000001 0.000000 -0.000000 -0.000001 0.000004 0.961998 1.563572 -4.044840 1.552685 3.454295 -4.875777 1.585066 3.469682 -4.853022 2.463896 1.609704 3.624302 6.649703 11.284551 7.868931 0.000001 0.000000 0.000001 0.000001 0.000000 0.000001 0.000001 0.000000 0.000001 0.574223 1.603291 -1.815878 -20.697789 9.000521 -23.723484 -0.000012 -27.489794 -0.000006 42.273031 -4.912404 -12.211382 -1.540048 3.690191 6.142348 3.946769 7.971399 0.752852 -0.000000 -0.000001 0.000001 -0.000002 0.000006 0.000002 -0.000003 0.000004 0.000001 0.000002 0.000000 0.000002 -0.000006 -0.001912 0.015979 -0.000000 0.001917 -0.015986 0.000002 -0.000002 0.000001 -0.000001 0.000005 -0.000008 -0.000004 0.000008 -0.000002 0.000003 -0.000003 -0.000001 -0.018089 4.054261 0.511066 -0.018090 -4.054254 -0.511062 -0.000001 0.000003 0.000000 0.000000 0.000001 -0.000001 0.215349 -5.122704 5.672776 -43.983976 36.850138 9.221129 0.000005 3.892994 0.000005 35.960645 10.271128 -10.808906 -1.940599 -1.643850 -7.370410 4.645038 -8.656800 -0.231336 0.000001 -0.000002 0.000003 0.001194 0.129387 -1.061768 -0.000002 0.000001 0.000016 -0.000000 0.000002 0.000007 0.001194 0.129391 -1.061770 -0.000003 0.000007 0.000092 -0.000003 -0.000001 -0.000000 0.001198 0.129390 -1.061772 0.000005 0.000009 0.000038 -0.000003 -0.000004 -0.000002 0.001192 0.129381 -1.061763 0.000001 0.000010 0.000072 0.000002 0.000002 -0.000001 -0.000004 -0.000000 -0.000002 0.000000 0.000001 0.000000 0.000000 0.000001 0.000000 0.000000 0.000001 0.000000 0.000000 0.000001 0.000000 0.000000 0.000001 0.000000 0.000000 0.000001 -0.000000 0.000000 0.000001 0.000000 0.000000 0.000001 0.000000 0.000000 0.000001 -0.000000 0.000000 -0.000000 -0.000000 0.000000 -0.000000 -0.000000 -0.000001 0.000001 0.000001 
-1.007595 80.377914 3.146398 -6.032517 -19.051747 7.663360 0.000000 -0.000001 -0.000000 -33.254043 7.954064 3.777001 24.038825 9.012114 0.771165 33.394608 6.276175 -8.497916 -0.000000 0.000000 -0.000000 -0.000000 0.000000 -0.000000 -0.000000 0.000000 -0.000000 -7.756326 -8.362573 11.098638 25.792512 -9.646586 -0.803269 -11.072055 -8.944539 -15.970770 -0.000001 0.000003 -0.000000 -0.000001 0.000003 -0.000000 0.000001 0.000001 -0.000003 1.106413 1.804714 -4.243345 1.780583 4.029426 -4.976538 1.816225 4.047996 -4.948806 2.395713 1.711542 3.497552 6.360600 11.646651 7.705536 0.000000 -0.000000 0.000001 0.000000 -0.000000 0.000001 0.000000 -0.000000 0.000001 0.374557 2.240368 -0.806799 -21.745712 7.692717 -20.829157 -0.000008 -27.338008 -0.000008 42.560514 -3.851470 -15.231569 -1.540049 3.690188 6.142348 3.946765 7.971399 0.752851 -0.000001 0.000001 -0.000001 -0.000003 0.000006 0.000002 -0.000006 0.000007 0.000001 -0.000000 0.000005 -0.000003 -0.000006 -0.001916 0.015982 0.000002 0.001914 -0.015987 0.000000 -0.000004 0.000005 -0.000002 -0.000002 -0.000009 -0.000004 0.000000 -0.000002 -0.000002 0.000002 0.000002 -0.018092 4.054256 0.511071 -0.018089 -4.054254 -0.511068 0.000003 0.000003 0.000004 -0.000001 0.000001 -0.000001 0.214940 -5.027857 5.548212 -45.098182 39.487731 9.681369 0.000005 3.811688 0.000002 35.292513 6.579494 -9.972266 -1.915019 -2.423497 -7.055056 4.645042 -8.656805 -0.231328 -0.000001 -0.000001 0.000003 0.000432 0.077387 -0.634896 -0.000001 0.000005 0.000013 0.000001 0.000003 0.000006 0.000432 0.077379 -0.634889 -0.000001 0.000010 0.000086 -0.000001 -0.000002 0.000003 0.000427 0.077377 -0.634882 0.000006 0.000014 0.000039 -0.000001 -0.000002 -0.000000 0.000431 0.077380 -0.634889 0.000001 0.000006 0.000068 0.000003 -0.000001 -0.000002 0.000001 -0.000000 -0.000003 0.000000 0.000000 -0.000000 0.000000 0.000000 -0.000000 0.000000 0.000000 -0.000000 0.000000 0.000000 -0.000000 0.000000 0.000000 0.000000 0.000000 0.000000 -0.000000 0.000000 0.000000 -0.000000 0.000000 0.000000 0.000000 0.000000 0.000000 -0.000000 0.000000 0.000000 -0.000000 0.000000 0.000000 -0.000000 0.000000 -0.000001 -0.000000 
